<svg width="316.3" height="426.2" xmlns="http://www.w3.org/2000/svg">

 <g>
  <title>background</title>
  <rect fill="none" id="canvas_background" height="402" width="582" y="-1" x="-1"/>
 </g>
 <g>
  <title>Layer 1</title>
  <path fill="#ffaaaa" id="svg_15" d="m263.51,12.88a2.15,2.15 0 0 0 -1.27,-0.7a4.15,4.15 0 0 0 -1.77,0.05c-0.4,0.15 -0.4,0.45 -0.81,0.65s-1.21,0.31 -1.66,0.51s-0.56,0.5 -0.66,1.11a13,13 0 0 1 -0.36,1.92c-0.15,0.41 -0.35,0.31 -0.85,0.25a4.42,4.42 0 0 0 -2.33,0.41a7.68,7.68 0 0 0 -2.8,2.22a6.31,6.31 0 0 0 -0.81,2.33a9,9 0 0 1 -0.81,1.57c-0.2,0.4 -0.2,0.7 0.41,1.11a11.36,11.36 0 0 0 2.52,1.11c0.71,0.2 0.91,0.1 1.37,0.51a11.36,11.36 0 0 1 1.52,1.87c0.35,0.55 0.35,0.75 -0.11,1.51a16.46,16.46 0 0 0 -1.77,3.39a6.65,6.65 0 0 0 -0.15,3.23c0.15,0.61 0.36,0.51 0.66,0.46a4.05,4.05 0 0 0 1.16,-0.25c0.46,-0.21 1,-0.61 1.37,-0.76a0.81,0.81 0 0 1 0.91,0.15c0.2,0.2 0.3,0.51 0.5,0.66s0.51,0.15 0.71,0.55s0.3,1.22 0.56,1.82s0.65,1 0.75,1.32s-0.1,0.5 0.31,0.7a24,24 0 0 1 2.32,0.91a17.81,17.81 0 0 0 2.58,1.62a7.17,7.17 0 0 0 2.53,0.1c0.61,0 0.81,0.21 1.11,-0.1a4,4 0 0 0 0.81,-1.57c0.1,-0.45 -0.1,-0.55 -0.71,-0.55a9.86,9.86 0 0 1 -2.12,-0.05c-0.51,-0.15 -0.51,-0.56 -0.51,-1a3.83,3.83 0 0 1 0.21,-1.42a5.28,5.28 0 0 1 1,-1.82c0.4,-0.4 0.81,-0.4 1,-0.6s0.2,-0.61 0.4,-0.81s0.61,-0.2 1.22,-0.2a7,7 0 0 1 2,0.2c0.6,0.2 1,0.6 1.21,0.6s0.2,-0.4 0.2,-0.8a1.51,1.51 0 0 0 -0.4,-1.22a14.35,14.35 0 0 0 -1.82,-1.21a3.45,3.45 0 0 1 -1.13,-1.17a11.1,11.1 0 0 1 -0.41,-1.42a18,18 0 0 1 -0.81,-2.43a6.68,6.68 0 0 1 0,-2.83c0.21,-0.6 0.61,-0.6 0.41,-0.81s-1,-0.6 -1.42,-1a1.2,1.2 0 0 1 -0.2,-1.41a8.2,8.2 0 0 0 0.61,-2c0,-0.56 -0.41,-0.86 -1,-1.27a6,6 0 0 1 -1.81,-1.56a10.35,10.35 0 0 1 -0.66,-2.18a5,5 0 0 0 -1.2,-1.7z" class="cls-1"/>
 </g>
</svg>